<?xml version="1.0" ?><svg id="Layer_1" style="enable-background:new 0 0 128 128;" version="1.1" viewBox="0 0 128 128" xml:space="preserve" xmlns="http://www.w3.org/2000/svg" xmlns:xlink="http://www.w3.org/1999/xlink"><style type="text/css">
	.st0{fill:#FF5576;}
	.st1{fill:#FFFFFF;}
	.st2{fill:#FFF0B3;}
	.st3{fill:#F2B630;}
	.st4{fill:none;stroke:#444B54;stroke-width:6;stroke-linecap:round;stroke-linejoin:round;stroke-miterlimit:10;}
	.st5{fill:#88E3FF;}
	.st6{fill:none;stroke:#444B54;stroke-width:6;stroke-linecap:round;stroke-linejoin:round;}
	.st7{fill:none;stroke:#444B54;stroke-width:6;stroke-linecap:round;stroke-linejoin:round;stroke-dasharray:6.1978,16.5275;}
	.st8{fill:#C3DBEA;}
	.st9{fill:#444B54;}
	.st10{fill:#D4D3DD;}
	.st11{fill:#8888AA;}
	.st12{fill:#E6E6EF;}
	.st13{fill:#B5B4C1;}
	.st14{fill:#B2F9EB;}
	.st15{fill:#2DBDA4;}
	.st16{fill:#11967D;}
	.st17{fill:#41CEB3;}
	.st18{fill:#146B8E;}
	.st19{fill:#6E6E8E;}
	.st20{fill:#F2F2F4;}
	.st21{fill:none;stroke:#FF5576;stroke-width:6;stroke-linecap:round;stroke-linejoin:round;stroke-miterlimit:10;}
	.st22{fill:#228EC4;}
</style><polygon class="st1" points="64,80 117,10 55,39 "/><polygon class="st1" points="117,10 19,30 55,39 64,80 67,43 107,50 "/><polygon class="st5" points="55,39 117,12 67,43 64,80 "/><polyline class="st4" points="64,80 67,43 107,50 117,10 19,30 55,39 58.5,50 "/><g><g><path class="st6" d="M39,57.5c-0.8,0.6-1.6,1.2-2.4,1.8"/><path class="st7" d="M23.4,69.2C15.6,75.7,12.8,81,12.5,95c-0.7,33,67.6,10.3,76,8.5c15-3.2,14.5-18.1-4.5-14.6    c-14,2.6-15.8,26.1,13.8,26.1"/><path class="st6" d="M106,114.4c1-0.1,2-0.3,3-0.4"/></g></g></svg>